<svg width="1em" height="1em" fill="currentColor" version="1.1" viewBox="0 0 29.978 29.978" xml:space="preserve" xmlns="http://www.w3.org/2000/svg"><path d="m25.462 19.105v6.848h-20.947v-6.848h-4.026v8.861c0 1.111 0.9 2.012 2.016 2.012h24.967c1.115 0 2.016-0.9 2.016-2.012v-8.861h-4.026z"/><path d="m14.62 18.426-5.764-6.965s-0.877-0.828 0.074-0.828 3.248 0 3.248 0 0-0.557 0-1.416v-8.723s-0.129-0.494 0.615-0.494h4.572c0.536 0 0.524 0.416 0.524 0.416v8.742 1.266s1.842 0 2.998 0c1.154 0 0.285 0.867 0.285 0.867s-4.904 6.51-5.588 7.193c-0.492 0.495-0.964-0.058-0.964-0.058z"/></svg>
